<svg width="28" height="34" viewBox="0 0 28 34" fill="none" xmlns="http://www.w3.org/2000/svg" xmlns:xlink="http://www.w3.org/1999/xlink">
<path d="M14,-0.667C6.636,-0.667 0.667,5.303 0.667,12.667C0.667,23.033 9.083,22.95 11.1,28.967L11.95,31.533C12.188,32.242 12.87,32.706 13.617,32.667L14.55,32.667C15.297,32.706 15.978,32.242 16.217,31.533L17.067,28.967C19,22.95 27.333,23.033 27.333,12.667C27.333,5.303 21.364,-0.667 14,-0.667ZM14,17.667C11.239,17.667 9,15.428 9,12.667C9,9.905 11.239,7.667 14,7.667C16.762,7.667 19,9.905 19,12.667C19,13.993 18.473,15.264 17.536,16.202C16.598,17.14 15.326,17.667 14,17.667Z" fill="#333333"/>
</svg>
