<svg width="42" height="50" viewBox="0 0 42 50" fill="none" xmlns="http://www.w3.org/2000/svg" xmlns:xlink="http://www.w3.org/1999/xlink">
<path d="M29.763,12.616C29.763,13.083 29.729,13.549 29.668,14.01C29.696,13.824 29.724,13.634 29.746,13.448C29.613,14.37 29.358,15.266 28.987,16.124C29.059,15.955 29.136,15.785 29.208,15.616C28.837,16.453 28.36,17.237 27.778,17.958L28.128,17.529C27.551,18.239 26.88,18.88 26.138,19.431L26.587,19.097C25.833,19.648 25.013,20.109 24.137,20.465C24.314,20.396 24.492,20.321 24.669,20.253C23.771,20.608 22.834,20.851 21.87,20.979C22.064,20.952 22.264,20.926 22.458,20.904C21.488,21.026 20.512,21.026 19.542,20.904C19.736,20.931 19.936,20.957 20.13,20.979C19.165,20.851 18.229,20.608 17.331,20.253C17.508,20.321 17.686,20.396 17.863,20.465C16.987,20.109 16.167,19.654 15.413,19.097L15.862,19.431C15.119,18.88 14.449,18.239 13.872,17.529L14.221,17.958C13.645,17.237 13.163,16.453 12.792,15.616C12.864,15.785 12.941,15.955 13.013,16.124C12.642,15.266 12.387,14.37 12.254,13.448C12.282,13.634 12.309,13.824 12.332,14.01C12.204,13.083 12.204,12.15 12.332,11.223C12.304,11.408 12.276,11.599 12.254,11.784C12.387,10.862 12.642,9.967 13.013,9.108C12.941,9.278 12.864,9.447 12.792,9.617C13.163,8.78 13.64,7.995 14.221,7.275L13.872,7.704C14.449,6.994 15.119,6.352 15.862,5.801L15.413,6.135C16.167,5.584 16.987,5.123 17.863,4.768C17.686,4.837 17.508,4.911 17.331,4.98C18.229,4.625 19.165,4.381 20.13,4.254C19.936,4.28 19.736,4.307 19.542,4.328C20.512,4.206 21.488,4.206 22.458,4.328C22.264,4.302 22.064,4.275 21.87,4.254C22.834,4.381 23.771,4.625 24.669,4.98C24.492,4.911 24.314,4.837 24.137,4.768C25.013,5.123 25.833,5.579 26.587,6.135L26.138,5.801C26.88,6.352 27.551,6.994 28.128,7.704L27.778,7.275C28.355,7.995 28.837,8.78 29.208,9.617C29.136,9.447 29.059,9.278 28.987,9.108C29.358,9.967 29.613,10.862 29.746,11.784C29.718,11.599 29.691,11.408 29.668,11.223C29.729,11.684 29.757,12.15 29.763,12.616C29.768,13.724 30.777,14.789 31.98,14.736C33.177,14.683 34.202,13.803 34.197,12.616C34.185,10.078 33.387,7.481 31.824,5.414C31.403,4.858 30.954,4.312 30.455,3.819C29.951,3.321 29.397,2.892 28.82,2.473C27.773,1.71 26.603,1.149 25.362,0.714C20.357,-1.04 14.321,0.523 10.935,4.466C10.469,5.006 10.026,5.568 9.649,6.172C9.272,6.771 8.978,7.407 8.707,8.054C8.197,9.251 7.936,10.523 7.831,11.811C7.626,14.333 8.313,16.967 9.688,19.129C11.012,21.217 13.013,23.008 15.352,24.02C16.039,24.317 16.743,24.593 17.475,24.789C18.201,24.98 18.938,25.086 19.686,25.17C21.05,25.324 22.441,25.218 23.788,24.958C28.903,23.962 33.188,19.749 33.98,14.805C34.097,14.084 34.185,13.363 34.185,12.632C34.191,11.525 33.16,10.459 31.968,10.512C30.771,10.55 29.763,11.429 29.763,12.616ZM37.117,45.753L8.679,45.753C7.421,45.753 6.163,45.763 4.905,45.753C4.766,45.753 4.628,45.742 4.495,45.726C4.688,45.753 4.888,45.779 5.082,45.801C4.86,45.769 4.65,45.71 4.445,45.631C4.622,45.7 4.799,45.774 4.977,45.843C4.755,45.753 4.55,45.636 4.356,45.493L4.805,45.827C4.639,45.695 4.483,45.552 4.35,45.393L4.7,45.822C4.55,45.636 4.434,45.44 4.334,45.228C4.406,45.398 4.483,45.567 4.555,45.737C4.472,45.541 4.417,45.334 4.378,45.128C4.406,45.313 4.434,45.504 4.456,45.689C4.367,45.048 4.428,44.37 4.428,43.723L4.428,41.455C4.428,40.888 4.461,40.326 4.539,39.765C4.511,39.95 4.483,40.141 4.461,40.326C4.616,39.24 4.916,38.175 5.365,37.163C5.293,37.332 5.215,37.502 5.143,37.671C5.575,36.707 6.13,35.801 6.8,34.969L6.451,35.398C7.122,34.577 7.892,33.835 8.757,33.194L8.308,33.527C9.178,32.886 10.126,32.356 11.134,31.943C10.957,32.012 10.78,32.086 10.602,32.155C11.661,31.731 12.769,31.439 13.911,31.291C13.717,31.318 13.518,31.344 13.324,31.365C14.144,31.265 14.959,31.259 15.784,31.259L25.927,31.259C26.842,31.259 27.751,31.254 28.665,31.365C28.471,31.339 28.272,31.312 28.078,31.291C29.214,31.439 30.328,31.726 31.386,32.155C31.209,32.086 31.032,32.012 30.854,31.943C31.863,32.356 32.811,32.886 33.681,33.527L33.232,33.194C34.091,33.835 34.867,34.571 35.538,35.398L35.189,34.969C35.859,35.801 36.413,36.707 36.846,37.671C36.774,37.502 36.696,37.332 36.624,37.163C37.068,38.175 37.372,39.235 37.528,40.326C37.5,40.141 37.472,39.95 37.45,39.765C37.555,40.565 37.561,41.36 37.561,42.165L37.561,44.788C37.561,45.09 37.572,45.393 37.533,45.689C37.561,45.504 37.589,45.313 37.611,45.128C37.577,45.34 37.516,45.541 37.433,45.737C37.505,45.567 37.583,45.398 37.655,45.228C37.561,45.44 37.439,45.636 37.289,45.822L37.638,45.393C37.5,45.552 37.35,45.7 37.184,45.827L37.633,45.493C37.439,45.636 37.234,45.748 37.012,45.843C37.189,45.774 37.367,45.7 37.544,45.631C37.339,45.71 37.123,45.763 36.907,45.801C37.101,45.774 37.3,45.748 37.494,45.726C37.372,45.742 37.245,45.748 37.117,45.753C36.547,45.758 35.959,45.986 35.549,46.373C35.166,46.739 34.873,47.343 34.9,47.873C34.956,49.007 35.876,50.008 37.117,49.992C39.273,49.961 41.169,48.615 41.801,46.638C42.05,45.854 41.995,45.011 41.995,44.205C41.995,42.361 42.056,40.533 41.723,38.705C41.235,36.029 39.828,33.511 37.899,31.535C35.97,29.558 33.376,28.106 30.633,27.46C29.059,27.089 27.474,27.03 25.866,27.03L16.034,27.03C14.388,27.03 12.753,27.105 11.151,27.513C8.43,28.202 5.869,29.669 3.979,31.662C2.072,33.67 0.692,36.193 0.243,38.885C-0.056,40.692 0.005,42.504 0.005,44.327C0.005,45.165 -0.045,46.039 0.271,46.839C0.681,47.867 1.335,48.678 2.294,49.288C3.042,49.759 3.99,49.987 4.877,49.998C5.309,50.003 5.742,49.998 6.174,49.998L37.123,49.998C38.281,49.998 39.395,49.023 39.34,47.878C39.284,46.723 38.364,45.753 37.117,45.753Z" fill="#595BD4"/>
</svg>
