<svg width="50" height="50" viewBox="0 0 50 50" fill="none" xmlns="http://www.w3.org/2000/svg" xmlns:xlink="http://www.w3.org/1999/xlink">
<path d="M49.891,11.272L44.076,34.578C43.641,36.238 42.5,37.344 41.141,37.344L18.696,37.344C17.391,37.344 16.141,36.307 15.707,34.786L7.12,5.533L2.174,5.533C0.978,5.533 0,4.288 0,2.766C0,1.245 0.978,0 2.174,0L8.641,0C9.565,0 10.38,0.761 10.707,1.867L19.565,31.812L40.217,31.812L44.837,13.14L19.239,13.14C18.043,13.14 17.065,11.895 17.065,10.373C17.065,8.852 18.043,7.607 19.239,7.607L47.826,7.607C48.533,7.607 49.185,8.091 49.565,8.783C50,9.474 50.109,10.443 49.891,11.272ZM19.783,41.01C18.859,41.01 17.935,41.494 17.283,42.324C16.63,43.154 16.25,44.329 16.25,45.505C16.25,46.68 16.63,47.856 17.283,48.686C17.935,49.516 18.859,50 19.783,50C20.707,50 21.63,49.516 22.283,48.686C22.935,47.856 23.315,46.68 23.315,45.505C23.315,44.329 22.935,43.154 22.283,42.324C21.63,41.494 20.707,41.01 19.783,41.01ZM39.293,41.01C38.37,41.01 37.446,41.494 36.793,42.324C36.141,43.154 35.761,44.329 35.761,45.505C35.761,46.68 36.141,47.856 36.793,48.686C37.446,49.516 38.37,50 39.293,50C40.217,50 41.141,49.516 41.793,48.686C42.446,47.856 42.826,46.68 42.826,45.505C42.826,44.329 42.446,43.154 41.793,42.324C41.141,41.494 40.217,41.01 39.293,41.01Z" fill="#000000"/>
</svg>
