<svg width="50" height="48" viewBox="0 0 50 48" fill="none" xmlns="http://www.w3.org/2000/svg" xmlns:xlink="http://www.w3.org/1999/xlink">
<path d="M49.891,10.04L44.076,32.65C43.641,34.261 42.5,35.334 41.141,35.334L18.696,35.334C17.391,35.334 16.141,34.328 15.707,32.852L7.12,4.472L2.174,4.472C0.978,4.472 0,3.264 0,1.788C0,0.312 0.978,-0.896 2.174,-0.896L8.641,-0.896C9.565,-0.896 10.38,-0.157 10.707,0.916L19.565,29.967L40.217,29.967L44.837,11.852L19.239,11.852C18.043,11.852 17.065,10.644 17.065,9.168C17.065,7.692 18.043,6.485 19.239,6.485L47.826,6.485C48.533,6.485 49.185,6.954 49.565,7.625C50,8.296 50.109,9.235 49.891,10.04ZM19.783,38.89C18.859,38.89 17.935,39.36 17.283,40.165C16.63,40.97 16.25,42.11 16.25,43.251C16.25,44.391 16.63,45.532 17.283,46.337C17.935,47.142 18.859,47.612 19.783,47.612C20.707,47.612 21.63,47.142 22.283,46.337C22.935,45.532 23.315,44.391 23.315,43.251C23.315,42.11 22.935,40.97 22.283,40.165C21.63,39.36 20.707,38.89 19.783,38.89ZM39.293,38.89C38.37,38.89 37.446,39.36 36.793,40.165C36.141,40.97 35.761,42.11 35.761,43.251C35.761,44.391 36.141,45.532 36.793,46.337C37.446,47.142 38.37,47.612 39.293,47.612C40.217,47.612 41.141,47.142 41.793,46.337C42.446,45.532 42.826,44.391 42.826,43.251C42.826,42.11 42.446,40.97 41.793,40.165C41.141,39.36 40.217,38.89 39.293,38.89Z" fill="#595BD4"/>
</svg>
